<?xml version="1.0" standalone="no"?>
<!DOCTYPE svg PUBLIC "-//W3C//DTD SVG 20010904//EN"
 "http://www.w3.org/TR/2001/REC-SVG-20010904/DTD/svg10.dtd">
<svg version="1.0" xmlns="http://www.w3.org/2000/svg"
 width="896.000000pt" height="619.000000pt" viewBox="0 0 896.000000 619.000000"
 preserveAspectRatio="xMidYMid meet">

<g transform="translate(0.000000,619.000000) scale(0.100000,-0.100000)"
fill="#000000" stroke="none">
<path d="M5185 5365 c-129 -46 -224 -133 -225 -206 0 -14 -11 -40 -25 -59 -25
-34 -33 -84 -15 -95 17 -11 11 -22 -20 -35 -17 -7 -44 -28 -61 -48 -26 -30
-30 -40 -25 -71 19 -108 20 -106 -13 -144 l-32 -35 56 -7 c122 -16 218 18 260
89 30 52 31 90 5 147 -34 77 -28 101 60 237 69 107 83 122 107 122 40 0 113
-38 113 -60 0 -10 7 -34 15 -53 24 -57 20 -128 -10 -168 -62 -85 -65 -92 -59
-139 4 -30 1 -51 -8 -63 -13 -18 -81 -36 -190 -51 l-47 -7 46 -57 c100 -122
106 -163 73 -440 -34 -275 -170 -1315 -176 -1344 l-5 -27 -40 26 c-22 14 -76
41 -120 59 l-81 32 -38 -39 c-20 -21 -45 -39 -54 -39 -28 0 -76 55 -76 86 l0
27 -103 -6 c-231 -14 -437 -110 -587 -274 -148 -162 -220 -351 -220 -575 1
-231 83 -429 246 -592 97 -97 202 -163 334 -208 91 -31 101 -32 255 -33 180 0
238 11 364 71 244 115 426 345 471 594 6 36 13 75 16 87 5 27 51 42 203 69
l103 18 -7 65 c-12 112 -15 112 -72 10 l-51 -93 -6 45 c-19 131 -266 2284
-266 2313 0 65 28 105 95 135 33 15 79 40 102 54 l42 27 -24 24 c-35 35 -33
82 5 128 41 49 60 98 60 151 0 131 -128 339 -225 366 -56 15 -71 14 -150 -14z
m-478 -2840 c101 -46 194 -156 222 -262 l12 -43 59 0 c45 0 60 -4 60 -14 0
-15 -138 -186 -151 -186 -14 0 -160 180 -154 190 3 5 28 10 56 10 57 0 59 4
25 77 -68 144 -239 223 -391 178 -65 -18 -100 -40 -156 -93 -45 -41 -79 -38
-79 8 0 59 154 156 269 169 76 9 164 -4 228 -34z m-466 -330 c83 -99 84 -115
10 -115 l-50 0 14 -40 c33 -95 114 -174 211 -207 32 -11 70 -14 127 -11 94 5
144 26 212 89 46 42 65 48 85 24 18 -22 1 -55 -52 -98 -135 -111 -327 -127
-473 -41 -86 50 -175 167 -191 250 -6 33 -6 33 -68 36 -41 2 -61 7 -61 16 0
18 136 182 151 182 7 0 45 -38 85 -85z"/>
<path d="M3445 3903 c-326 -69 -566 -335 -605 -669 -13 -115 -13 -1410 0
-1524 34 -294 225 -535 507 -640 l78 -29 -1115 -3 -1115 -2 1325 -7 c729 -3
1497 -7 1707 -8 l382 -1 -16 -46 c-12 -35 -13 -51 -5 -69 15 -33 83 -76 129
-82 32 -4 45 0 71 22 31 26 62 101 62 152 0 23 2 23 108 23 l108 0 -1 -80 c0
-74 2 -81 28 -107 24 -25 35 -28 87 -27 102 2 130 35 130 155 l0 69 1228 2
1227 3 -1214 5 -1214 5 69 22 c237 77 422 275 496 530 l23 78 0 805 c-1 729
-2 810 -18 855 l-17 50 6 -45 c4 -25 8 -383 10 -797 l5 -751 -53 -7 c-169 -23
-337 -87 -414 -156 -88 -81 -103 -166 -64 -355 25 -117 20 -154 -21 -188 -38
-32 -53 -32 -122 0 -31 14 -72 28 -92 31 -33 5 -36 3 -50 -31 l-15 -36 -110 0
c-102 0 -110 1 -110 19 0 33 -38 51 -110 51 -87 0 -104 -6 -117 -41 l-12 -30
-588 3 -588 3 -76 27 c-199 71 -353 205 -439 383 -69 143 -72 164 -77 510 -6
427 11 613 79 825 115 360 360 639 723 819 222 111 483 189 775 231 210 30
200 27 200 50 0 20 -8 20 -557 19 -455 0 -571 -3 -628 -16z"/>
<path d="M5570 3791 c0 -6 4 -13 10 -16 6 -3 7 1 4 9 -7 18 -14 21 -14 7z"/>
</g>
</svg>
