<?xml version="1.0" standalone="no"?>
<!DOCTYPE svg PUBLIC "-//W3C//DTD SVG 20010904//EN"
 "http://www.w3.org/TR/2001/REC-SVG-20010904/DTD/svg10.dtd">
<svg version="1.0" xmlns="http://www.w3.org/2000/svg"
 width="738.000000pt" height="1082.000000pt" viewBox="0 0 738.000000 1082.000000"
 preserveAspectRatio="xMidYMid meet">

<g transform="translate(0.000000,1082.000000) scale(0.100000,-0.100000)"
fill="#000000" stroke="none">
<path d="M6259 10068 c-8 -7 -32 -34 -52 -59 -20 -26 -69 -80 -109 -120 -40
-41 -144 -147 -230 -236 l-156 -163 -239 0 c-131 0 -573 -4 -983 -10 -410 -5
-1156 -15 -1658 -20 l-913 -11 -45 50 c-105 117 -311 269 -547 405 -26 15 -70
47 -98 72 -30 26 -59 44 -74 44 -43 0 -48 -28 -40 -203 6 -144 10 -169 41
-264 20 -58 34 -107 32 -109 -2 -1 -152 -4 -333 -6 -327 -3 -330 -3 -340 -25
-8 -15 -11 -982 -11 -3359 l1 -3338 115 -64 c245 -136 611 -332 711 -382 141
-70 889 -468 913 -485 10 -8 15 -18 12 -24 -4 -6 -64 -62 -134 -126 -70 -63
-194 -179 -276 -258 -125 -121 -148 -146 -142 -165 4 -11 15 -24 26 -27 11 -4
184 66 471 191 l454 196 85 -45 c830 -440 1003 -531 1116 -589 l61 -31 555
291 c305 161 560 292 568 292 13 0 199 -71 520 -198 208 -82 643 -224 663
-216 19 7 28 29 20 50 -3 9 -24 24 -47 34 -45 19 -119 69 -212 142 -75 60
-259 205 -388 306 -54 42 -106 83 -114 90 -14 11 -14 14 -2 26 8 8 114 66 235
129 121 62 337 176 480 252 143 76 271 142 285 148 29 13 311 160 485 255 66
35 130 74 143 85 l22 20 0 3429 c0 3380 0 3428 -19 3447 -19 19 -33 20 -417
14 -389 -6 -397 -6 -389 13 5 10 11 136 13 279 3 239 2 260 -14 272 -22 16
-26 16 -45 1z m-21 -363 c-4 -138 -5 -142 -49 -256 -50 -129 -180 -334 -310
-489 -39 -47 -108 -132 -152 -190 -152 -196 -271 -324 -380 -407 -16 -12 -76
-67 -134 -123 -58 -55 -108 -99 -110 -96 -2 2 1 87 8 188 9 147 9 207 -1 307
l-13 123 74 66 c113 101 399 384 512 507 55 61 202 215 326 344 261 271 236
269 229 26z m-4857 70 c94 -58 186 -118 204 -133 18 -15 63 -52 100 -82 36
-30 106 -98 154 -150 91 -99 271 -325 271 -341 0 -15 -33 -10 -66 10 -16 10
-72 57 -123 105 -51 48 -117 105 -147 128 -30 22 -54 44 -54 49 0 4 -31 42
-70 83 -38 42 -70 80 -70 85 0 5 -12 12 -26 15 -15 4 -41 18 -59 32 -17 13
-56 32 -86 43 -74 25 -199 89 -204 104 -8 26 -12 157 -4 157 4 0 85 -47 180
-105z m5513 -370 c-5 -12 2 -15 29 -15 22 0 37 6 41 15 3 9 19 15 41 15 33 0
36 -2 33 -26 -4 -39 -33 -54 -53 -29 -9 11 -14 15 -12 10 3 -6 -1 -19 -9 -30
-10 -14 -17 -16 -25 -8 -18 18 -41 -11 -33 -42 7 -28 29 -34 38 -10 7 19 26
20 26 1 0 -8 7 -16 15 -20 8 -3 14 -15 12 -28 -1 -18 3 -23 21 -22 12 0 22 -5
22 -13 0 -7 -3 -12 -7 -12 -28 5 -33 -4 -33 -58 0 -32 -1 -71 -2 -88 -1 -16 1
-30 6 -30 27 0 51 -214 26 -230 -5 -3 -10 -18 -10 -33 0 -21 2 -24 10 -12 7
11 10 2 10 -32 0 -38 -3 -46 -15 -42 -8 4 -15 17 -15 31 0 15 -4 22 -11 18 -6
-4 -20 3 -31 14 -23 26 -42 23 -46 -7 -2 -15 -10 -22 -26 -22 -32 0 -46 19
-45 60 1 19 3 27 6 18 3 -12 14 -18 32 -18 22 0 27 4 27 23 -1 29 -21 41 -46
27 -19 -10 -20 -8 -20 75 0 58 3 84 10 80 6 -4 33 -4 60 0 40 6 50 11 50 26 0
20 -24 26 -35 9 -3 -5 -10 -10 -14 -10 -10 0 -31 46 -31 69 0 11 -6 21 -13 24
-17 7 -39 108 -26 122 16 16 10 25 -16 25 -14 0 -29 -8 -35 -20 -6 -11 -17
-20 -25 -20 -8 0 -15 -7 -15 -15 0 -8 4 -15 9 -15 5 0 11 -13 13 -30 l5 -30
-349 0 -348 0 63 93 c35 50 76 122 91 160 l29 67 313 0 c274 0 313 -2 308 -15z
m53 9 c-3 -3 -12 -4 -19 -1 -8 3 -5 6 6 6 11 1 17 -2 13 -5z m-1317 -13 c0 -6
-64 -75 -141 -155 l-141 -146 -678 0 c-545 0 -680 -3 -688 -13 -8 -9 -11 -240
-11 -768 0 -415 0 -770 0 -789 -1 -53 -19 -274 -38 -464 l-17 -169 24 -19 c24
-20 25 -23 24 -170 -1 -132 -4 -152 -19 -160 -9 -6 -61 -43 -115 -84 -54 -41
-101 -74 -104 -74 -3 0 -6 46 -6 102 l0 101 60 63 60 62 0 239 c0 227 1 239
20 251 25 16 26 46 1 69 -15 14 -21 35 -23 83 -3 63 -4 65 -32 68 -20 3 -36
-4 -57 -24 l-29 -28 0 47 c0 26 5 56 12 66 9 15 9 25 0 46 -9 20 -14 223 -19
771 -4 511 -10 749 -17 759 -9 11 -135 15 -752 21 l-740 7 -106 136 -107 136
257 6 c141 4 835 12 1542 18 707 7 1305 13 1330 15 133 7 510 5 510 -3z
m-4351 -133 c23 -51 53 -110 67 -130 13 -21 24 -40 24 -44 0 -3 -114 -5 -253
-3 -282 4 -287 3 -287 -57 0 -19 -4 -34 -9 -34 -5 0 -17 -3 -27 -7 -15 -6 -16
-2 -11 32 7 40 -14 105 -33 105 -6 0 -8 10 -4 24 3 13 1 27 -5 30 -6 4 -11 16
-11 27 0 29 49 109 67 109 9 0 13 6 10 15 -6 15 28 18 314 23 l116 2 42 -92z
m-532 76 c-3 -3 -12 -4 -19 -1 -8 3 -5 6 6 6 11 1 17 -2 13 -5z m-37 -64 c0
-5 -4 -10 -10 -10 -5 0 -10 5 -10 10 0 6 5 10 10 10 6 0 10 -4 10 -10z m5
-140 c0 -7 -6 -15 -12 -17 -8 -3 -13 4 -13 17 0 13 5 20 13 18 6 -3 12 -11 12
-18z m-103 -72 c-5 -7 -12 -29 -15 -48 -2 -21 -4 -10 -5 30 -2 60 -1 63 15 48
12 -13 13 -20 5 -30z m128 -22 c0 -8 7 -22 16 -30 13 -14 13 -21 3 -51 -14
-38 -29 -44 -50 -19 -10 12 -10 22 -1 48 7 18 12 40 12 49 0 9 5 17 10 17 6 0
10 -6 10 -14z m1473 -99 l61 -78 -22 -21 -21 -22 -60 60 c-63 63 -82 104 -61
130 22 25 40 13 103 -69z m1885 49 c-15 -11 -23 -96 -9 -96 3 0 16 12 29 27
17 20 22 35 18 55 l-5 28 101 0 c97 0 101 -1 85 -17 -16 -16 -16 -18 4 -29 17
-9 28 -8 51 4 16 8 32 20 35 28 4 11 44 14 211 14 194 0 239 -6 155 -19 -39
-7 -59 -31 -24 -31 14 0 23 -9 27 -27 4 -16 14 -33 21 -38 8 -6 19 -30 24 -55
5 -24 21 -55 34 -68 14 -14 25 -31 25 -38 0 -8 5 -14 10 -14 6 0 10 -4 10 -10
0 -19 -38 -10 -68 15 -17 14 -44 28 -61 31 -17 4 -28 10 -25 15 3 5 -12 9 -33
10 -104 2 -107 3 -114 29 l-6 25 -12 -28 c-13 -34 -14 -53 -2 -76 5 -9 6 -23
1 -30 -12 -20 -33 -2 -26 22 12 46 -45 127 -89 127 -41 0 -62 -27 -64 -82 -1
-11 -9 -18 -21 -18 -12 0 -25 -10 -32 -25 -7 -15 -20 -25 -32 -25 -38 0 -48
-15 -44 -61 l3 -44 -46 0 c-30 0 -53 -6 -66 -17 -28 -25 -39 -22 -53 13 -10
22 -18 29 -32 26 -17 -5 -18 5 -18 198 l0 202 27 -5 c22 -4 24 -7 11 -16z
m-1629 -20 c-6 -13 -20 -27 -32 -30 -13 -3 -18 -10 -14 -20 7 -18 -4 -21 -18
-7 -6 5 -23 11 -39 13 -40 4 -43 23 -6 36 16 6 30 16 30 21 0 6 20 11 45 11
44 0 44 -1 34 -24z m126 14 c-3 -5 -12 -10 -20 -10 -8 0 -17 5 -20 10 -4 6 5
10 20 10 15 0 24 -4 20 -10z m1025 -178 c0 -103 -4 -201 -9 -218 -5 -18 -5
-37 1 -47 5 -9 8 -49 6 -87 -3 -69 -3 -71 -23 -55 -19 14 -19 16 -2 29 19 15
23 61 6 71 -6 4 -16 -1 -24 -11 -12 -17 -14 -17 -20 -2 -4 9 -17 19 -31 22
-18 5 -24 13 -24 35 0 44 -10 61 -34 61 -28 0 -56 -33 -56 -65 0 -14 -4 -25
-10 -25 -5 0 -10 6 -10 14 0 24 -28 26 -43 3 -23 -35 -32 -15 -25 53 3 22 -1
25 -30 28 -39 4 -65 -14 -57 -38 8 -24 -20 -43 -52 -37 -15 3 -34 0 -44 -6
-20 -13 -49 5 -49 31 0 11 -29 68 -47 91 -1 2 -12 -8 -24 -22 -11 -15 -27 -27
-35 -27 -16 0 -20 45 -4 55 16 10 12 23 -10 30 -11 3 -20 13 -20 20 0 8 -8 19
-17 24 -10 6 -14 11 -9 11 5 0 3 7 -4 15 -10 12 -10 15 4 15 9 0 15 -5 13 -12
-1 -7 3 -12 9 -13 7 0 35 -21 63 -47 56 -51 74 -57 102 -32 21 19 42 10 35
-14 -2 -10 -7 -27 -11 -39 -5 -18 -2 -23 12 -23 11 0 27 6 36 13 16 11 17 18
6 67 -7 30 -14 47 -17 38 -2 -10 -8 -18 -14 -18 -6 0 -17 8 -24 18 -11 14 -15
14 -23 4 -7 -11 -13 -9 -30 9 -11 12 -21 28 -21 34 0 6 -8 18 -17 27 -36 33
-45 50 -50 89 -3 21 -9 39 -13 39 -5 0 -15 3 -24 6 -13 5 -16 -1 -16 -30 0
-25 -5 -36 -14 -36 -9 0 -16 -12 -18 -32 -3 -37 -15 -42 -32 -15 -9 15 -7 22
12 37 25 21 31 70 7 70 -8 0 -15 -6 -15 -14 0 -7 -10 -13 -22 -12 -18 1 -23 7
-23 28 -1 15 -10 37 -20 48 -17 19 -27 21 -65 16 -76 -12 -83 -11 -87 2 -4 10
89 12 476 12 l481 -2 0 -186z m-1076 139 c3 -5 -5 -16 -19 -25 -24 -16 -25
-15 -25 2 0 10 3 22 7 25 9 10 31 9 37 -2z m196 -11 c0 -5 -9 -10 -20 -10 -11
0 -20 5 -20 10 0 6 9 10 20 10 11 0 20 -4 20 -10z m2145 -31 c-8 -12 -45 -12
-45 0 0 10 30 20 43 14 4 -3 5 -9 2 -14z m-3722 -10 c15 -7 27 -16 27 -20 0
-5 31 -29 69 -54 113 -75 194 -185 135 -185 -20 0 -137 77 -206 136 l-52 44
-133 0 -133 0 -6 25 c-9 36 1 53 38 64 42 13 226 6 261 -10z m1432 -26 c3 -13
2 -23 -3 -23 -5 0 -12 14 -14 30 -5 33 6 28 17 -7z m-806 -35 c24 -24 55 -56
70 -72 75 -84 248 -249 320 -305 73 -58 81 -68 81 -99 l0 -34 -37 23 c-94 56
-136 92 -288 243 -191 190 -261 286 -207 286 9 0 37 -19 61 -42z m4846 -65
c-57 -158 -155 -364 -245 -514 -50 -85 -105 -177 -122 -204 -18 -31 -53 -68
-91 -95 -33 -25 -119 -91 -190 -147 -275 -219 -356 -276 -371 -264 -16 14 -46
4 -46 -15 0 -8 7 -14 16 -14 14 0 -52 -60 -153 -139 -48 -36 -49 -35 -29 29
31 95 51 271 50 441 l-1 166 46 24 c155 82 322 196 401 273 47 45 125 114 173
152 49 38 116 91 150 117 152 119 420 286 436 271 2 -2 -9 -39 -24 -81z
m-3930 56 c10 -15 5 -17 -39 -11 -26 3 -34 7 -25 13 19 12 57 11 64 -2z
m-2100 -310 l-13 -84 0 190 0 190 13 -106 c11 -86 11 -120 0 -190z m2059 235
c9 -3 16 -17 16 -30 0 -19 -7 -24 -35 -30 -59 -11 -70 1 -34 36 18 16 33 30
35 30 1 0 9 -3 18 -6z m1966 -8 c0 -3 -4 -8 -10 -11 -5 -3 -10 -1 -10 4 0 6 5
11 10 11 6 0 10 -2 10 -4z m-3832 -66 c2 -19 10 -39 18 -43 9 -5 14 -25 13
-60 -1 -50 -1 -50 -9 -17 -5 19 -19 42 -32 50 -41 26 -80 72 -74 86 3 8 1 14
-5 14 -6 0 -8 4 -5 8 3 5 24 6 48 3 41 -6 43 -8 46 -41z m6059 -17 c-3 -10 -5
-4 -5 12 0 17 2 24 5 18 2 -7 2 -21 0 -30z m-4250 11 c-3 -3 -12 -4 -19 -1 -8
3 -5 6 6 6 11 1 17 -2 13 -5z m-1909 -54 c20 -33 5 -41 -33 -19 -19 12 -32 25
-29 30 10 16 49 9 62 -11z m2177 -371 c185 -177 334 -327 332 -333 -2 -6 -16
-12 -31 -14 -24 -3 -45 14 -144 111 -64 64 -142 138 -174 167 -31 28 -59 61
-62 73 -3 12 -18 29 -33 38 -15 9 -55 33 -87 53 -67 40 -86 44 -86 18 0 -24
-28 -62 -45 -62 -7 0 -20 7 -28 15 -14 14 -17 34 -33 230 l-7 79 31 -26 c17
-14 182 -171 367 -349z m1235 247 c0 -33 -6 -52 -25 -73 l-24 -28 -1 38 c0 24
5 40 15 43 8 4 15 10 15 15 0 5 -7 9 -15 9 -8 0 -15 4 -15 10 0 5 7 7 15 4 8
-4 17 1 21 10 10 26 14 18 14 -28z m-2542 4 c63 -37 183 -148 214 -199 12 -20
42 -54 67 -77 l45 -41 3 -104 4 -104 -24 38 c-14 21 -27 55 -31 76 -3 21 -17
47 -31 61 -14 13 -25 32 -25 41 0 10 -6 23 -12 29 -7 5 -50 41 -96 80 -45 38
-87 70 -92 70 -19 0 -93 75 -107 108 -25 60 4 68 85 22z m1817 -20 c-3 -6 -10
-10 -16 -10 -10 0 -12 33 -2 44 9 9 26 -22 18 -34z m-447 12 c2 -7 -3 -12 -12
-12 -9 0 -16 7 -16 16 0 17 22 14 28 -4z m162 -12 c0 -11 -43 -14 -53 -3 -4 3
-2 12 4 19 12 15 49 2 49 -16z m360 5 c0 -8 -4 -15 -10 -15 -5 0 -10 7 -10 15
0 8 5 15 10 15 6 0 10 -7 10 -15z m720 5 c0 -5 -4 -10 -10 -10 -5 0 -10 5 -10
10 0 6 5 10 10 10 6 0 10 -4 10 -10z m-3350 -77 c0 -37 -4 -63 -8 -57 -8 9 -4
124 4 124 2 0 4 -30 4 -67z m6080 57 c0 -5 -2 -10 -4 -10 -3 0 -8 5 -11 10 -3
6 -1 10 4 10 6 0 11 -4 11 -10z m-3869 -53 c-11 -11 -41 3 -41 18 0 19 34 23
41 5 4 -8 3 -19 0 -23z m449 32 c0 -8 5 -8 15 1 12 10 15 10 15 -3 0 -23 -16
-30 -40 -17 -23 13 -27 30 -5 30 8 0 15 -5 15 -11z m-230 -27 c0 -34 -16 -52
-46 -52 -12 0 -33 -9 -48 -21 l-26 -20 0 26 c0 17 6 29 18 31 9 3 25 18 34 35
24 41 68 42 68 1z m3672 16 c-7 -7 -12 -20 -12 -30 0 -22 -18 -24 -27 -3 -3 9
2 22 13 30 23 17 43 20 26 3z m-2037 -284 c8 -176 3 -240 -14 -230 -5 3 -14
-1 -21 -9 -7 -8 -9 -15 -4 -15 4 0 -3 -11 -16 -25 -12 -13 -27 -23 -33 -22 -6
1 -17 -10 -24 -24 -18 -37 -97 -122 -448 -481 -275 -281 -310 -314 -313 -291
-2 14 6 134 18 267 l21 241 83 85 c197 202 693 724 711 748 l20 27 6 -45 c4
-25 10 -127 14 -226z m-1530 215 c5 -16 9 -18 15 -8 7 10 12 10 23 1 19 -16
93 -17 131 -3 22 9 31 9 37 0 11 -18 -1 -40 -20 -35 -9 3 -63 7 -121 8 l-106
3 4 28 c5 32 28 36 37 6z m1315 1 c0 -5 -7 -10 -16 -10 -8 0 -12 5 -9 10 3 6
10 10 16 10 5 0 9 -4 9 -10z m2290 -20 c0 -5 -2 -10 -4 -10 -3 0 -8 5 -11 10
-3 6 -1 10 4 10 6 0 11 -4 11 -10z m-3850 -40 c0 -5 -7 -10 -15 -10 -8 0 -15
5 -15 10 0 6 7 10 15 10 8 0 15 -4 15 -10z m170 1 c0 -12 -29 -23 -41 -15 -18
10 -9 24 16 24 14 0 25 -4 25 -9z m330 -33 c0 -36 -4 -35 -14 5 -4 16 -2 27 4
27 5 0 10 -14 10 -32z m590 -50 c0 -16 -3 -19 -11 -11 -6 6 -8 16 -5 22 11 17
16 13 16 -11z m-700 -60 c-7 -19 -9 -15 -9 22 0 37 2 41 9 23 6 -14 6 -32 0
-45z m980 52 c-20 -13 -33 -13 -25 0 3 6 14 10 23 10 15 0 15 -2 2 -10z
m-3042 -162 c7 -7 12 -18 12 -26 0 -8 17 -38 37 -66 69 -97 128 -157 183 -189
53 -29 200 -161 200 -179 0 -43 -224 100 -323 206 -118 127 -162 200 -146 244
9 25 19 28 37 10z m2712 -75 c0 -10 -5 -25 -10 -33 -8 -13 -10 -13 -10 2 0 9
-3 23 -6 32 -4 11 -1 16 10 16 9 0 16 -8 16 -17z m-1915 -98 c348 -310 354
-317 325 -335 -7 -4 -24 -4 -37 1 -14 5 -33 9 -44 9 -28 0 -151 94 -252 193
-87 85 -97 104 -97 184 0 42 0 42 105 -52z m-195 -15 c0 -11 -4 -20 -9 -20
-11 0 -22 26 -14 34 12 12 23 5 23 -14z m4708 -107 c-85 -145 -219 -332 -260
-365 -21 -16 -45 -43 -54 -59 -19 -39 -241 -286 -331 -369 -38 -36 -116 -96
-174 -135 -57 -38 -151 -103 -207 -144 -94 -67 -225 -131 -240 -116 -3 3 11
40 31 82 19 43 38 98 42 123 3 25 15 72 25 105 36 112 52 205 46 258 l-6 52
58 38 c73 48 199 146 292 226 126 108 291 209 450 274 85 34 336 115 362 116
14 1 7 -18 -34 -86z m-5681 26 c81 -17 159 -37 172 -46 22 -14 280 -227 469
-387 46 -39 91 -77 100 -83 8 -7 13 -16 9 -19 -3 -3 -33 11 -66 31 -38 24 -66
35 -79 31 -12 -4 -33 4 -60 24 -23 16 -45 30 -50 30 -18 0 -282 264 -282 282
0 29 -45 42 -106 29 -40 -9 -65 -8 -125 4 -141 30 -149 33 -165 70 -32 77 -27
78 183 34z m2411 -128 c78 -74 142 -138 142 -143 0 -12 -32 -9 -59 6 -18 10
-31 11 -47 4 -12 -6 -33 -8 -47 -5 -30 8 -149 116 -176 161 -25 40 -27 93 -4
118 20 22 8 31 191 -141z m1722 48 c-17 -93 -105 -433 -132 -510 -21 -60 -38
-83 -179 -235 -171 -184 -210 -229 -282 -322 -35 -47 -96 -99 -241 -207 -107
-80 -197 -145 -201 -145 -9 0 -1 156 16 350 l11 125 507 505 c278 278 507 505
509 504 2 -1 -2 -31 -8 -65z m-3270 -139 c0 -5 -4 -10 -9 -10 -6 0 -13 5 -16
10 -3 6 1 10 9 10 9 0 16 -4 16 -10z m740 -112 c30 -12 73 -35 95 -52 75 -57
195 -169 195 -183 0 -30 -33 -25 -89 14 -31 22 -93 59 -137 81 -99 50 -140 83
-147 119 -9 50 2 53 83 21z m1070 -248 c7 -26 9 -112 4 -252 l-6 -213 -53 -55
c-29 -30 -98 -122 -155 -203 -116 -168 -357 -444 -383 -439 -11 2 -17 -4 -17
-16 0 -20 -24 -55 -89 -128 l-44 -49 7 110 c4 61 29 233 57 384 l49 273 187
197 c238 250 416 431 425 431 4 0 12 -18 18 -40z m-340 -91 c0 -21 5 -29 17
-29 35 0 -20 -38 -64 -45 -42 -7 -60 6 -27 19 10 4 14 14 11 26 -3 11 -1 20 4
20 5 0 9 9 9 19 0 11 6 21 13 24 23 8 37 -5 37 -34z m-2415 -148 c114 -20 149
-36 214 -95 25 -23 69 -59 96 -81 93 -73 185 -159 185 -172 0 -20 -28 -27 -54
-13 -17 9 -29 9 -44 1 -16 -9 -28 -4 -68 26 -69 51 -150 130 -194 189 l-39 51
-107 5 c-117 5 -134 14 -134 68 0 47 3 47 145 21z m1240 -2 c50 -27 182 -128
216 -165 33 -37 55 -92 42 -105 -20 -20 -145 57 -240 148 -90 86 -112 124 -80
136 19 8 20 8 62 -14z m4485 -91 c-67 -164 -88 -198 -137 -219 -31 -13 -51
-32 -78 -75 -20 -31 -60 -80 -89 -108 -47 -45 -76 -83 -76 -100 0 -19 77 4 92
28 4 6 10 7 14 4 9 -10 -75 -124 -135 -183 -28 -27 -51 -57 -51 -66 0 -21 -47
-34 -66 -18 -21 17 -57 -4 -71 -42 -6 -16 -25 -37 -42 -46 -40 -23 -45 -68 -6
-61 14 3 25 4 25 2 0 -2 -23 -22 -51 -44 -32 -25 -58 -39 -69 -35 -16 5 -57
-25 -76 -56 -5 -9 -43 -40 -84 -71 -41 -31 -102 -77 -135 -102 -33 -25 -79
-52 -103 -60 -41 -15 -42 -15 -37 7 8 30 8 58 0 82 -5 16 3 26 44 50 42 25 51
35 51 58 0 16 4 37 10 47 8 15 5 21 -21 34 -17 9 -36 13 -41 10 -12 -7 -2 27
18 67 7 14 25 73 39 130 53 209 50 203 103 228 90 43 167 95 247 166 106 95
332 259 490 356 69 42 266 132 273 124 2 -2 -15 -50 -38 -107z m-1419 -33
c-39 -186 -72 -251 -195 -387 -34 -36 -88 -99 -121 -140 -164 -200 -725 -722
-749 -698 -6 6 -17 10 -26 10 -18 0 -17 35 7 228 l17 134 57 39 c31 21 95 80
140 131 46 51 116 122 154 158 39 36 126 122 195 191 69 70 154 146 190 169
36 24 115 82 175 130 121 94 169 129 172 126 1 -1 -6 -42 -16 -91z m-2642
-214 c71 -47 122 -101 119 -125 -5 -36 -36 -30 -124 26 -87 54 -108 84 -84
113 18 22 40 18 89 -14z m-1133 -86 c10 -8 29 -15 42 -15 42 0 222 -156 208
-179 -19 -30 -82 -2 -218 96 -81 58 -95 77 -77 99 14 18 21 17 45 -1z m3019
-115 c11 -17 -5 -32 -21 -19 -7 6 -11 15 -8 20 7 12 21 11 29 -1z m-638 -140
c-9 -136 -41 -254 -77 -290 -12 -12 -18 -25 -15 -29 2 -5 -2 -14 -10 -21 -8
-7 -15 -18 -15 -24 0 -16 -58 -84 -265 -311 -99 -108 -240 -263 -312 -343 -89
-99 -142 -149 -160 -154 -16 -3 -38 -10 -50 -13 -22 -7 -23 -5 -22 41 0 27 6
95 12 151 l12 103 220 282 c121 156 256 324 300 373 44 50 103 117 130 149 40
48 254 223 260 214 1 -2 -3 -59 -8 -128z m553 65 c0 -27 -12 -32 -29 -12 -8
10 -7 17 1 25 19 19 28 14 28 -13z m-2673 -67 c16 -21 63 -214 63 -257 0 -43
-8 -54 -29 -42 -15 9 -91 225 -91 258 0 48 33 72 57 41z m1157 -180 c-7 -46
-13 -102 -13 -125 -1 -36 -4 -43 -21 -43 -19 0 -20 7 -20 124 l0 125 28 3 c15
2 29 3 33 1 3 -1 -1 -39 -7 -85z m586 87 c0 -3 -48 -62 -107 -130 l-108 -125
-58 0 -58 0 89 103 c148 168 135 157 192 157 27 0 50 -2 50 -5z m535 -5 c-6
-10 29 -50 43 -50 5 0 28 14 50 30 38 27 49 30 119 30 l77 0 -39 -41 c-22 -22
-60 -52 -85 -67 -70 -40 -79 -51 -86 -103 l-7 -49 -65 0 c-89 0 -102 -12 -102
-100 0 -65 -1 -67 -23 -63 -18 4 -42 -18 -132 -118 l-110 -123 -3 68 -3 68
106 119 107 119 34 118 c18 64 34 129 34 145 0 25 3 27 46 27 26 0 43 -4 39
-10z m1190 1 c-23 -20 -215 -141 -270 -169 -33 -17 -75 -42 -94 -56 -27 -20
-46 -26 -88 -26 -29 0 -53 2 -53 4 0 2 57 61 128 130 l127 126 130 0 c73 0
125 -4 120 -9z m303 -68 c-10 -42 -30 -98 -44 -125 -20 -40 -29 -48 -52 -48
l-28 0 17 108 c10 59 18 115 19 125 0 14 9 17 54 17 l54 0 -20 -77z m947 67
c3 -5 -3 -10 -15 -10 -11 0 -28 -9 -37 -20 -10 -11 -24 -20 -33 -21 -10 0 -11
-2 -2 -6 19 -8 15 -43 -6 -43 -26 0 -33 10 -22 31 7 11 6 19 -1 21 -6 2 -1 15
11 31 17 21 30 27 60 27 21 0 42 -4 45 -10z m-4466 -77 c6 -43 14 -100 18
-127 l6 -49 -29 7 c-16 4 -29 8 -30 9 -5 11 -74 226 -74 231 0 3 22 6 49 6
l49 0 11 -77z m494 -11 c178 -139 186 -146 181 -154 -12 -19 -46 -4 -118 50
-41 31 -101 75 -132 97 -31 22 -73 52 -92 68 l-35 27 42 0 c38 0 54 -9 154
-88z m-309 39 c4 -5 39 -27 80 -50 108 -59 282 -191 266 -201 -18 -11 -93 19
-201 80 -48 27 -115 60 -150 75 -35 14 -66 31 -70 37 -12 19 22 68 48 68 12 0
24 -4 27 -9z m3131 -118 c-9 -48 -37 -149 -63 -222 -43 -122 -57 -149 -147
-280 l-100 -145 -218 -178 c-159 -129 -263 -205 -383 -278 -90 -55 -167 -100
-169 -100 -3 0 -2 8 3 18 5 9 12 33 16 53 3 20 31 114 61 209 29 94 63 214 75
265 l21 93 102 99 c166 161 396 353 457 381 30 14 87 46 125 71 39 24 106 66
150 93 95 58 95 58 70 -79z m-3950 -71 c-28 -4 -40 6 -120 102 l-58 69 101
-84 c87 -73 97 -84 77 -87z m-467 81 c-10 -2 -28 -2 -40 0 -13 2 -5 4 17 4 22
1 32 -1 23 -4z m5564 -58 c4 -21 1 -25 -18 -25 -21 0 -22 2 -13 30 12 34 24
32 31 -5z m-177 -15 c3 -5 -1 -10 -10 -10 -9 0 -13 5 -10 10 3 6 8 10 10 10 2
0 7 -4 10 -10z m113 -7 c-10 -2 -28 -2 -40 0 -13 2 -5 4 17 4 22 1 32 -1 23
-4z m-5316 -39 c33 -10 89 -55 82 -65 -8 -13 -75 -11 -184 6 -75 11 -99 19
-113 36 -30 37 -9 45 97 38 52 -4 105 -11 118 -15z m5598 -112 c-140 -293
-355 -560 -575 -713 -151 -106 -479 -266 -598 -292 l-69 -15 7 26 c3 15 22 66
41 114 19 49 42 127 50 175 28 170 32 181 69 193 18 6 53 25 76 42 76 55 306
196 381 234 40 20 109 60 153 89 192 128 492 272 504 243 1 -5 -16 -48 -39
-96z m-5175 -115 c93 -90 116 -128 84 -135 -21 -4 -239 196 -239 219 0 22 19
29 43 17 10 -5 60 -51 112 -101z m1172 51 c12 -15 23 -107 16 -125 -8 -22 -42
-14 -59 12 -33 50 8 157 43 113z m1159 -210 c-4 -40 -14 -118 -22 -172 l-14
-99 -88 -98 c-108 -123 -161 -185 -321 -373 -133 -157 -283 -331 -416 -484
l-80 -91 -3 169 -2 170 168 183 c93 100 191 207 218 238 27 31 157 177 289
324 132 147 247 275 255 285 8 11 17 19 19 20 2 0 0 -33 -3 -72z m94 -220 l0
-233 -130 -135 -129 -135 0 84 -1 83 79 92 c44 50 97 109 120 130 34 33 39 44
34 68 -5 27 16 278 23 278 2 0 4 -105 4 -232z m-1552 -189 c130 -78 147 -92
138 -108 -13 -21 -42 -11 -169 62 -122 69 -186 124 -172 147 7 12 48 -8 203
-101z m2902 37 c0 -11 -166 -418 -197 -484 -29 -62 -44 -80 -101 -123 -37 -27
-141 -86 -232 -131 -178 -88 -307 -163 -410 -238 -76 -54 -110 -74 -117 -66
-3 3 18 87 47 188 29 101 55 190 57 199 3 9 46 47 96 85 51 38 137 105 192
150 192 158 214 173 317 225 56 28 136 74 178 102 113 77 170 108 170 93z
m-3606 -98 c34 -47 12 -51 -39 -7 -45 40 -49 67 -6 44 17 -8 37 -25 45 -37z
m1312 21 c3 -6 -8 -25 -26 -43 l-32 -31 7 30 c11 48 35 69 51 44z m-1769 -130
c34 -6 69 -16 78 -22 14 -11 14 -14 0 -35 -21 -28 -77 -29 -197 -3 -94 20
-108 26 -108 45 0 39 58 43 227 15z m2662 -188 c-28 -69 -62 -139 -74 -156
-13 -16 -81 -93 -151 -170 -71 -78 -156 -172 -189 -210 -49 -57 -321 -361
-522 -583 -34 -38 -42 -43 -43 -27 0 11 -5 71 -10 134 l-10 114 67 71 c38 39
273 284 523 544 435 451 455 471 458 440 2 -20 -14 -73 -49 -157z m2618 82
c10 -27 -46 -119 -127 -207 -42 -44 -102 -112 -134 -150 -82 -99 -198 -195
-302 -251 -49 -26 -101 -56 -116 -67 -66 -46 -498 -230 -498 -212 0 10 34 71
86 154 31 50 72 137 99 210 25 69 49 130 53 136 4 6 64 48 134 92 69 44 154
103 188 131 91 76 163 108 328 146 168 38 279 45 289 18z m-4826 -105 c119
-88 149 -116 147 -132 -6 -41 -37 -29 -115 46 -43 41 -100 87 -128 103 -75 43
-86 54 -74 76 5 11 12 19 15 19 2 0 72 -50 155 -112z m2259 -226 l0 -127 -122
-108 -123 -107 -3 80 -3 81 108 120 c59 66 114 135 122 154 7 19 15 35 17 35
2 0 4 -57 4 -128z m3006 -27 c-3 -8 -10 -15 -15 -15 -5 0 -4 11 2 25 12 25 23
16 13 -10z m-4608 -79 c50 -21 92 -43 92 -47 0 -5 18 -9 39 -9 51 0 91 -31 75
-57 -28 -45 -108 -40 -131 8 -9 18 -26 28 -61 37 -57 15 -122 65 -122 94 0 11
3 18 8 16 4 -1 49 -21 100 -42z m-1152 -131 c19 -25 18 -51 -2 -59 -9 -3 -44
-6 -79 -6 -79 0 -95 6 -95 36 0 36 33 53 102 50 46 -2 64 -8 74 -21z m2725
-128 c-17 -45 -45 -123 -63 -174 l-33 -91 -202 -122 c-111 -67 -228 -141 -260
-165 -31 -24 -61 -41 -65 -39 -11 7 -57 -28 -58 -43 0 -11 -59 -62 -165 -143
-22 -17 -70 -55 -106 -85 -36 -30 -68 -55 -71 -55 -2 0 0 27 6 60 l10 59 145
128 c79 70 278 247 440 393 163 146 330 295 371 332 90 80 98 72 51 -55z
m3029 93 c12 -8 11 -10 -7 -10 -13 0 -23 5 -23 10 0 13 11 13 30 0z m-4340
-79 c0 -57 -10 -111 -20 -111 -25 0 -39 104 -20 141 20 37 40 23 40 -30z
m2488 -63 c-28 -62 -61 -126 -73 -143 -12 -16 -38 -57 -58 -91 -64 -106 -188
-189 -377 -251 -116 -38 -188 -75 -329 -170 -83 -56 -121 -74 -121 -58 0 3 19
42 42 88 23 45 58 123 77 173 l36 92 140 100 c77 55 203 138 280 184 128 77
207 112 415 181 8 3 16 6 17 6 0 1 -22 -50 -49 -111z m1822 48 c0 -15 -18 -31
-26 -23 -7 7 7 37 17 37 5 0 9 -6 9 -14z m-5315 -90 c44 -13 118 -27 165 -30
146 -11 210 -35 182 -69 -9 -11 -9 -22 3 -50 21 -52 20 -87 -4 -87 -31 0 -64
49 -58 87 l6 33 -87 0 c-105 0 -201 19 -276 55 -66 31 -88 61 -60 82 10 7 25
11 33 8 9 -2 52 -15 96 -29z m2345 -233 l0 -138 -33 -19 c-57 -34 -208 -116
-213 -116 -2 0 -4 35 -4 78 l0 77 83 49 c110 65 123 78 143 147 10 32 19 59
21 59 2 0 3 -62 3 -137z m2350 129 c0 -16 -59 -91 -116 -147 -103 -101 -220
-186 -277 -200 -91 -22 -169 -65 -252 -138 -26 -23 -69 -47 -112 -61 -39 -13
-108 -46 -154 -72 -45 -26 -112 -58 -147 -70 -60 -22 -63 -22 -46 -3 9 10 24
19 32 19 17 0 52 28 52 42 0 4 -7 8 -15 8 -22 0 -20 8 35 121 27 57 50 109 50
116 0 20 116 92 221 139 55 23 136 65 182 93 171 103 335 156 495 160 28 0 52
-3 52 -7z m-3823 -184 c94 -52 95 -53 60 -56 -24 -2 -55 7 -99 29 -64 32 -78
44 -78 67 0 20 16 14 117 -40z m-980 -145 c7 -20 -45 -34 -147 -40 -84 -5 -98
-3 -119 14 -44 36 -21 44 126 41 98 -2 138 -7 140 -15z m438 -156 c228 -93
233 -96 240 -108 4 -6 3 -15 -3 -21 -6 -6 -28 0 -63 18 -30 15 -130 53 -224
84 -137 46 -172 62 -182 81 -26 50 -19 49 232 -54z m1914 26 c-54 -89 -142
-220 -162 -240 -11 -13 -28 -23 -38 -23 -9 0 -28 -15 -42 -34 -37 -48 -114
-102 -167 -116 -24 -7 -65 -21 -90 -32 -25 -11 -59 -26 -76 -33 -18 -8 -47
-27 -67 -44 -19 -17 -42 -31 -50 -31 -9 0 -19 -4 -22 -10 -3 -5 -20 -10 -37
-10 -23 0 -29 -4 -24 -15 5 -13 0 -15 -30 -9 -28 5 -38 2 -49 -12 -8 -11 -14
-14 -15 -6 0 19 -26 14 -65 -12 -20 -14 -41 -26 -48 -29 -7 -2 -1 -13 16 -29
l27 -26 -22 -14 c-35 -22 -58 -29 -58 -16 0 6 -7 19 -15 28 -19 22 -6 94 22
121 40 38 406 287 562 382 169 103 435 246 459 247 10 0 7 -11 -9 -37z m1221
9 c0 -17 -107 -174 -182 -266 -43 -53 -115 -125 -162 -163 l-85 -69 -351 -118
c-193 -65 -352 -117 -355 -115 -4 5 151 270 167 284 7 7 41 24 76 38 34 15
115 60 180 101 145 91 305 172 437 220 55 19 134 49 175 65 79 32 100 36 100
23z m-1173 -619 c-88 -144 -109 -190 -97 -213 13 -24 42 -25 100 -5 23 8 44
15 46 15 2 0 4 -29 4 -64 0 -61 -1 -64 -30 -76 -17 -7 -47 -32 -67 -56 -19
-24 -42 -44 -49 -44 -8 0 -19 -9 -26 -20 -7 -11 -18 -20 -25 -20 -7 0 -17 -8
-22 -17 -8 -14 -10 -8 -11 29 0 26 5 50 10 53 15 9 12 61 -5 75 -11 9 -15 34
-15 95 0 76 3 89 43 172 44 95 66 123 91 123 18 0 23 55 6 65 -6 4 -8 11 -5
16 10 15 -5 48 -25 59 -13 7 -30 5 -62 -9 l-43 -18 -3 50 c-3 45 0 53 31 86
19 20 72 97 118 170 l84 135 3 -256 2 -256 -53 -89z m1983 239 c0 -5 -14 -30
-30 -56 -27 -41 -34 -47 -55 -42 -33 8 -64 -22 -58 -57 4 -21 -4 -35 -42 -72
-27 -25 -73 -66 -104 -89 -61 -47 -180 -111 -189 -102 -3 3 12 22 34 41 37 33
38 34 14 35 -14 0 -38 -8 -55 -18 -46 -27 -118 -48 -122 -36 -2 6 -10 19 -17
30 -13 17 -16 17 -90 -1 -42 -10 -76 -23 -76 -27 0 -4 -18 -17 -40 -28 l-40
-20 9 22 c27 68 82 180 87 175 3 -3 -2 -19 -10 -36 -17 -33 -21 -65 -7 -59 16
6 90 77 100 97 6 11 8 26 5 34 -6 18 154 123 267 175 l79 37 170 2 c94 1 170
-1 170 -5z m-4162 -97 c50 -8 100 -18 110 -24 16 -9 16 -10 -3 -18 -25 -10
-168 -10 -217 0 -38 8 -65 38 -52 58 4 7 19 8 38 5 17 -4 73 -13 124 -21z
m1961 -167 c-17 -40 -42 -97 -57 -127 -26 -51 -30 -55 -87 -72 -32 -10 -61
-16 -63 -14 -6 5 -97 -41 -147 -75 -22 -14 -70 -43 -106 -62 -36 -20 -77 -47
-91 -61 -24 -24 -82 -47 -118 -47 -9 0 -24 -6 -35 -14 -11 -7 -31 -17 -45 -21
-26 -8 -88 -51 -105 -73 -6 -7 -27 -11 -55 -9 -36 2 -47 8 -57 28 -7 13 -13
32 -13 42 0 9 -6 26 -12 37 -8 13 -9 23 -3 28 14 13 1002 512 1014 512 5 0 -4
-33 -20 -72z m-1561 38 c34 -17 161 -52 225 -61 61 -9 57 -29 -7 -33 -33 -2
-75 6 -138 28 -97 33 -118 44 -118 66 0 17 4 17 38 0z m2670 -96 c-7 -11 -18
-20 -25 -20 -7 0 -10 -6 -7 -14 3 -8 -2 -29 -11 -48 -19 -37 -94 -118 -110
-118 -5 0 -30 -14 -55 -31 -111 -75 -240 -123 -240 -89 0 15 -41 12 -75 -6
-46 -25 -234 -75 -259 -69 -6 1 -26 6 -44 10 -18 4 -31 13 -30 19 8 26 522
264 763 352 107 39 109 40 93 14z m243 -150 c28 0 100 -31 94 -40 -6 -10 -153
-25 -161 -17 -3 3 5 21 18 41 13 19 25 31 26 26 2 -6 12 -10 23 -10z m-1497
-316 c-94 -151 -150 -227 -174 -236 -31 -12 -35 -15 -101 -59 -48 -31 -56 -42
-68 -87 l-14 -51 -93 -40 c-51 -23 -97 -41 -104 -41 -6 0 -30 -11 -53 -24 -47
-27 -147 -72 -341 -152 -94 -39 -125 -49 -111 -34 12 11 44 29 71 39 59 21
167 99 161 115 -4 11 -11 11 -88 0 -44 -6 -47 -5 -53 20 -5 20 -13 26 -34 26
-52 0 -132 -68 -308 -261 -52 -57 -130 -114 -207 -151 l-82 -39 35 36 c19 19
59 55 88 78 30 23 102 90 161 148 126 125 252 234 302 259 20 11 49 34 65 53
17 20 57 46 99 64 39 17 207 94 375 171 168 77 339 154 380 171 41 17 86 37
100 45 14 7 26 12 28 10 2 -1 -13 -28 -34 -60z m-1598 13 c16 -16 -20 -37 -65
-37 -48 0 -71 13 -71 38 0 11 14 13 65 10 35 -2 67 -7 71 -11z m349 -29 c37
-17 25 -33 -25 -33 -33 0 -46 5 -57 23 -15 21 -15 22 20 22 20 0 48 -5 62 -12z
m3245 -23 c20 -25 -12 -52 -68 -57 -26 -3 -89 -13 -140 -22 -113 -21 -147 -19
-147 9 0 15 9 21 35 25 20 4 42 10 50 15 21 13 167 43 216 44 26 1 46 -5 54
-14z m-475 -95 c24 -39 -95 -111 -221 -135 -68 -14 -79 -13 -110 1 -81 39 -17
78 216 133 50 12 108 13 115 1z m-1132 -39 l28 -18 -43 -11 c-23 -6 -44 -9
-46 -7 -9 9 9 55 21 55 6 0 25 -8 40 -19z m-102 -23 c7 -28 10 -26 -88 -65
-10 -4 -13 9 -13 46 l0 52 47 -3 c41 -3 48 -6 54 -30z m371 -98 c27 0 20 -31
-12 -47 -14 -7 -44 -13 -68 -13 -39 0 -43 2 -40 23 3 23 60 50 86 41 8 -2 23
-4 34 -4z m-259 -51 c46 -12 47 -26 5 -43 -78 -32 -189 -28 -196 7 -7 38 108
59 191 36z m-183 -188 c0 -6 10 -9 23 -9 12 1 44 1 71 0 l48 -2 -17 -27 c-12
-18 -14 -28 -7 -31 7 -2 12 -10 12 -18 0 -11 -12 -12 -57 -7 -32 4 -66 7 -75
7 -15 0 -18 9 -18 48 0 26 5 48 10 48 6 0 10 -4 10 -9z m1461 -92 c20 -20 20
-22 5 -38 -23 -22 -217 -23 -261 -1 -54 27 -39 44 45 51 162 12 188 11 211
-12z m-2181 -22 c23 -20 50 -59 50 -72 0 -12 -29 -3 -50 15 -13 11 -27 20 -32
20 -4 0 -8 5 -8 12 0 6 -7 20 -17 30 -15 17 -15 18 8 18 13 0 35 -10 49 -23z
m-505 -7 c3 -5 -1 -10 -10 -10 -9 0 -13 5 -10 10 3 6 8 10 10 10 2 0 7 -4 10
-10z m451 -78 c-4 -26 -50 -22 -54 5 -2 14 3 23 15 25 24 6 42 -9 39 -30z
m183 29 c8 -5 11 -16 8 -24 -3 -9 1 -18 9 -21 8 -3 14 -17 14 -31 0 -22 -4
-25 -34 -25 -39 0 -48 19 -39 76 6 34 17 41 42 25z m1649 -69 c-15 -3 -78 23
-78 33 0 2 21 -4 48 -13 27 -9 40 -18 30 -20z m-365 13 c1 -6 -14 -11 -33 -13
l-35 -2 25 15 c27 15 40 15 43 0z m-1110 -31 c82 -41 83 -42 74 -50 -3 -4 -24
3 -47 15 -48 25 -60 26 -60 6 0 -8 -9 -15 -20 -15 -11 0 -20 4 -20 9 0 5 -9
12 -20 16 -18 6 -19 8 -4 31 9 13 18 24 20 24 3 0 37 -16 77 -36z m2208 -14
c102 -79 134 -108 127 -115 -14 -15 -76 7 -178 63 -79 43 -106 63 -108 80 -3
20 1 22 46 22 44 0 56 -6 113 -50z m-3151 30 c-8 -5 -19 -10 -25 -10 -5 0 -3
5 5 10 8 5 20 10 25 10 6 0 3 -5 -5 -10z m924 -86 c16 -6 23 -44 8 -44 -5 0
-14 11 -20 25 -12 27 -12 28 12 19z m262 -47 c21 -12 24 -16 11 -17 -11 0 -22
-12 -28 -30 -10 -26 -15 -29 -37 -24 -37 9 -37 9 -37 64 l0 48 31 -13 c17 -7
44 -20 60 -28z m152 -55 c2 -7 -3 -12 -12 -12 -9 0 -16 7 -16 16 0 17 22 14
28 -4z m432 -206 c0 -2 -7 -6 -15 -10 -8 -3 -15 -1 -15 4 0 6 7 10 15 10 8 0
15 -2 15 -4z"/>
<path d="M6870 9340 c0 -11 5 -20 10 -20 6 0 10 9 10 20 0 11 -4 20 -10 20 -5
0 -10 -9 -10 -20z"/>
<path d="M6920 9235 c0 -7 7 -18 15 -25 19 -16 19 -40 1 -40 -21 0 -46 -28
-46 -51 0 -10 7 -19 15 -19 20 0 46 43 55 88 6 34 4 39 -17 49 -18 9 -23 8
-23 -2z"/>
<path d="M6475 9150 c-7 -12 2 -30 16 -30 12 0 12 27 0 35 -5 3 -12 1 -16 -5z"/>
<path d="M910 9175 c0 -8 5 -15 10 -15 6 0 10 7 10 15 0 8 -4 15 -10 15 -5 0
-10 -7 -10 -15z"/>
<path d="M4476 8985 c7 -18 21 -19 27 -2 4 7 6 6 6 -4 1 -9 9 -20 18 -23 15
-6 13 -10 -12 -31 -29 -24 -29 -25 -11 -40 32 -25 46 -19 46 20 0 23 5 35 13
34 27 -3 38 1 30 14 -4 6 -6 19 -5 27 2 10 -6 16 -18 17 -11 1 -20 -3 -20 -10
0 -8 -3 -8 -12 1 -18 18 -69 16 -62 -3z"/>
<path d="M4200 8976 c0 -9 5 -16 11 -16 7 0 9 -10 7 -24 -6 -29 5 -51 20 -42
12 7 12 86 1 86 -4 0 -14 3 -23 6 -11 4 -16 1 -16 -10z"/>
<path d="M4680 8950 c-13 -8 -12 -11 5 -24 15 -11 22 -11 27 -3 20 31 0 48
-32 27z"/>
<path d="M4290 8915 c0 -11 7 -15 23 -13 12 2 22 8 22 13 0 6 -10 11 -22 13
-16 2 -23 -2 -23 -13z"/>
<path d="M4238 8879 c-19 -11 -26 -69 -8 -69 19 0 10 -28 -10 -33 -15 -4 -20
-14 -20 -37 0 -27 3 -31 22 -28 12 2 27 12 33 23 5 11 14 27 19 35 13 19 8 92
-7 107 -8 8 -17 9 -29 2z"/>
<path d="M4070 8846 c0 -27 28 -43 36 -21 9 21 -3 45 -21 45 -9 0 -15 -9 -15
-24z"/>
<path d="M4642 8858 c7 -20 48 -23 48 -4 0 11 -9 16 -26 16 -16 0 -24 -5 -22
-12z"/>
<path d="M4765 8830 c3 -5 8 -10 11 -10 2 0 4 5 4 10 0 6 -5 10 -11 10 -5 0
-7 -4 -4 -10z"/>
<path d="M4080 8740 c0 -5 7 -10 15 -10 8 0 15 5 15 10 0 6 -7 10 -15 10 -8 0
-15 -4 -15 -10z"/>
<path d="M4120 8680 c0 -5 9 -10 19 -10 11 0 23 5 26 10 4 6 -5 10 -19 10 -14
0 -26 -4 -26 -10z"/>
<path d="M3075 8959 c-5 -14 -1 -27 9 -37 15 -15 16 -13 16 21 0 40 -15 50
-25 16z"/>
<path d="M3131 8908 c-15 -24 2 -58 30 -58 31 0 34 28 7 54 -24 22 -26 22 -37
4z"/>
<path d="M3070 8881 c-13 -26 -13 -31 5 -31 9 0 15 9 15 25 0 30 -6 32 -20 6z"/>
<path d="M3157 8793 c-3 -5 -1 -19 4 -32 7 -19 12 -22 21 -13 22 22 53 14 65
-18 13 -34 44 -40 69 -15 22 22 32 19 36 -12 4 -35 28 -43 28 -10 0 40 -10 57
-36 57 -12 0 -27 8 -33 18 -7 13 -21 17 -60 15 -28 0 -51 3 -51 8 0 11 -37 12
-43 2z"/>
<path d="M3414 8776 c-7 -19 13 -56 31 -56 21 0 20 56 -1 64 -22 8 -24 8 -30
-8z"/>
<path d="M3496 8723 c-9 -22 2 -33 34 -33 50 0 46 30 -7 42 -14 4 -24 0 -27
-9z"/>
<path d="M3575 8690 c-7 -12 2 -30 16 -30 12 0 12 27 0 35 -5 3 -12 1 -16 -5z"/>
<path d="M3471 8654 c0 -11 3 -14 6 -6 3 7 2 16 -1 19 -3 4 -6 -2 -5 -13z"/>
<path d="M3494 8659 c-8 -14 11 -33 25 -25 16 10 13 36 -3 36 -8 0 -18 -5 -22
-11z"/>
<path d="M3550 8551 c0 -21 5 -31 16 -31 11 0 14 8 12 27 -4 39 -28 42 -28 4z"/>
<path d="M5561 7614 c-7 -8 -10 -18 -7 -21 7 -8 56 17 56 29 0 14 -34 8 -49
-8z"/>
<path d="M5717 6796 c-4 -9 -14 -12 -27 -9 -22 6 -60 -21 -60 -43 0 -7 -9 -18
-20 -24 -22 -12 -27 -56 -7 -63 40 -14 151 90 140 132 -6 24 -18 27 -26 7z"/>
<path d="M4425 5849 c-10 -15 1 -23 20 -15 9 3 13 10 10 16 -8 13 -22 13 -30
-1z"/>
<path d="M3506 4281 c-4 -7 -5 -15 -2 -18 9 -9 19 4 14 18 -4 11 -6 11 -12 0z"/>
<path d="M5861 4320 c-24 -17 -50 -39 -58 -50 -13 -18 -12 -20 10 -20 44 0
137 51 137 75 0 12 -21 25 -38 25 -4 0 -27 -14 -51 -30z"/>
<path d="M5551 4220 l-20 -45 22 -3 c12 -2 26 -8 32 -13 5 -5 15 -9 23 -9 11
0 12 3 3 13 -6 8 -8 16 -5 19 3 4 -4 23 -14 45 l-20 38 -21 -45z"/>
<path d="M3800 2536 c0 -8 5 -18 10 -21 6 -3 10 3 10 14 0 12 -4 21 -10 21 -5
0 -10 -6 -10 -14z"/>
<path d="M2850 1848 c-32 -12 -71 -48 -64 -59 16 -26 124 11 124 42 0 21 -28
29 -60 17z"/>
</g>
</svg>
