<?xml version="1.0" standalone="no"?>
<!DOCTYPE svg PUBLIC "-//W3C//DTD SVG 20010904//EN"
 "http://www.w3.org/TR/2001/REC-SVG-20010904/DTD/svg10.dtd">
<svg version="1.0" xmlns="http://www.w3.org/2000/svg"
 width="823.000000pt" height="807.000000pt" viewBox="0 0 823.000000 807.000000"
 preserveAspectRatio="xMidYMid meet">

<g transform="translate(0.000000,807.000000) scale(0.100000,-0.100000)"
fill="#000000" stroke="none">
<path d="M3253 7259 c-332 -57 -510 -409 -358 -709 26 -52 144 -179 548 -595
l214 -220 349 340 c192 187 365 360 385 384 167 198 156 481 -25 662 -97 97
-202 141 -341 141 -126 0 -219 -34 -341 -126 -8 -6 -25 1 -51 22 -106 83 -253
123 -380 101z"/>
<path d="M5304 6046 c-129 -30 -207 -92 -235 -188 -10 -37 10 -116 40 -157 18
-23 18 -23 13 33 -8 104 29 143 112 116 23 -7 88 -14 146 -15 78 -2 118 -8
155 -23 l50 -20 3 -56 c2 -40 7 -56 17 -56 16 0 19 -9 35 -103 7 -37 16 -69
20 -72 11 -7 77 93 95 144 21 60 20 149 -3 182 -102 155 -114 168 -186 200
-62 27 -179 34 -262 15z"/>
<path d="M5495 5283 c-182 -125 -210 -142 -213 -124 -4 25 -4 25 -71 5 -29 -8
-69 -30 -89 -48 -20 -18 -97 -64 -170 -101 -73 -37 -154 -83 -178 -102 -38
-28 -56 -35 -109 -39 l-64 -4 -303 210 -303 209 -18 -22 c-94 -119 -139 -190
-131 -207 14 -30 341 -385 475 -516 156 -152 189 -167 349 -162 105 3 105 3
235 65 l130 61 8 -62 c4 -33 13 -90 20 -126 l13 -65 -48 -78 c-33 -52 -53 -99
-62 -143 -8 -36 -18 -69 -22 -73 -5 -4 -39 -20 -76 -35 -38 -16 -68 -31 -68
-34 0 -3 7 -48 17 -99 9 -51 14 -95 11 -98 -3 -3 -30 -10 -61 -15 -30 -5 -69
-16 -86 -25 -71 -36 -170 -31 -221 11 -73 62 -8 153 121 172 l53 7 -195 94
c-222 108 -385 179 -429 188 -18 3 -59 -2 -95 -12 -71 -19 -144 -74 -163 -122
-6 -15 -49 -176 -96 -358 -47 -181 -101 -387 -119 -456 l-34 -127 96 -24 c53
-14 149 -38 214 -54 l117 -28 0 -82 0 -81 -70 -2 c-76 -1 -123 7 -242 46 l-77
24 -215 -70 c-118 -39 -265 -85 -328 -101 -67 -18 -118 -37 -125 -47 -44 -59
39 -193 157 -253 134 -68 336 -66 554 6 72 24 80 25 91 11 7 -10 15 -76 19
-159 6 -124 43 -527 64 -697 l7 -56 273 -3 c244 -2 273 -1 279 14 3 9 -8 210
-26 448 -17 237 -34 477 -37 532 l-7 101 144 76 144 76 485 3 c426 3 489 5
522 20 l37 17 15 -52 c8 -29 18 -64 21 -79 6 -23 13 -28 37 -28 72 0 147 66
183 162 l21 53 198 3 199 2 -6 43 c-4 23 -58 358 -122 743 l-115 701 30 273
c17 150 35 291 40 314 13 55 12 148 -1 183 -31 85 -126 164 -218 184 -49 10
-54 14 -102 85 -27 41 -51 74 -52 73 -1 -1 -96 -66 -212 -146z m-1150 -1978
c0 -6 -241 -115 -256 -115 -5 0 19 73 86 259 4 9 32 -11 88 -62 45 -41 82 -78
82 -82z"/>
<path d="M4331 1286 c-51 -52 -122 -81 -181 -73 -39 5 -100 31 -161 68 l-37
22 -153 -115 c-173 -130 -249 -180 -314 -208 -77 -33 -85 -96 -15 -124 143
-57 337 -69 470 -27 88 27 138 51 204 98 51 36 50 36 76 -9 9 -15 16 -14 78
12 204 85 217 96 210 165 -7 55 -47 138 -96 194 l-37 42 -44 -45z"/>
</g>
</svg>
