<?xml version="1.0" standalone="no"?>
<!DOCTYPE svg PUBLIC "-//W3C//DTD SVG 20010904//EN"
 "http://www.w3.org/TR/2001/REC-SVG-20010904/DTD/svg10.dtd">
<svg version="1.0" xmlns="http://www.w3.org/2000/svg"
 width="1027.000000pt" height="732.000000pt" viewBox="0 0 1027.000000 732.000000"
 preserveAspectRatio="xMidYMid meet">

<g transform="translate(0.000000,732.000000) scale(0.100000,-0.100000)"
fill="#000000" stroke="none">
<path d="M5900 5995 l0 -527 -327 5 c-291 3 -337 6 -408 25 -192 50 -340 135
-481 276 -180 179 -278 389 -300 639 l-7 78 -31 -7 c-17 -3 -34 -8 -38 -11 -5
-2 -8 -229 -8 -504 l0 -499 -200 0 c-119 0 -200 4 -200 9 0 6 -13 193 -30 418
-16 224 -30 413 -30 420 0 15 -42 -1 -222 -82 -173 -78 -358 -182 -530 -297
l-148 -99 0 -529 0 -530 -446 0 -446 0 -29 -29 -29 -29 0 -967 0 -967 29 -29
29 -29 446 0 446 0 0 -165 0 -165 90 0 90 0 0 -95 0 -95 -265 0 c-227 0 -266
-2 -271 -15 -5 -13 -91 -15 -691 -15 l-684 0 20 -29 c12 -16 73 -81 137 -145
l116 -116 1123 0 1123 0 7 -167 c4 -93 13 -227 19 -299 13 -142 5 -121 104
-256 28 -39 84 -72 247 -144 221 -98 438 -159 705 -201 162 -25 567 -25 730 0
311 49 569 131 858 275 l133 66 15 53 c16 55 22 61 42 41 6 -6 14 -9 17 -6 6
6 21 234 31 466 l7 162 1073 0 1073 0 115 116 c64 64 125 129 137 145 l20 29
-265 0 -266 0 0 27 c0 34 19 247 26 291 4 29 9 33 26 29 28 -8 84 16 97 41 6
12 11 37 11 57 0 44 -37 85 -75 85 -15 0 -36 5 -48 12 -25 14 -426 12 -464 -3
-43 -16 -44 -34 -13 -260 16 -118 31 -229 34 -246 l5 -33 -304 0 c-202 0 -306
4 -310 11 -4 5 -6 217 -6 469 2 537 10 500 -104 500 l-65 0 -2 1392 -3 1391
-125 79 c-189 118 -501 270 -697 339 l-53 18 -4 -22 c-3 -12 -16 -193 -31
-402 -14 -209 -28 -401 -31 -427 l-6 -48 -209 0 -209 0 0 520 c0 506 -1 520
-19 520 -11 0 -26 3 -35 6 -14 6 -16 -44 -16 -521z m-1600 -910 l0 -305 -175
0 c-133 0 -175 3 -175 13 0 6 -9 131 -20 277 -11 146 -20 277 -20 293 l0 27
195 0 195 0 0 -305z m1600 -120 l0 -425 -285 0 -285 0 0 24 c0 46 -31 56 -172
56 -148 0 -176 -7 -184 -50 -4 -16 -13 -30 -20 -30 -11 0 -14 20 -14 91 0 87
-1 92 -29 120 l-29 29 -251 0 -251 0 0 305 0 305 760 0 760 0 0 -425z m455 3
l-30 -423 -178 -3 -177 -2 0 425 0 425 208 0 207 0 -30 -422z m-1497 -264 c21
-14 22 -23 22 -128 0 -83 -4 -117 -15 -132 -8 -10 -15 -27 -15 -36 0 -15 -9
-18 -48 -18 -36 0 -61 -8 -102 -33 -46 -27 -60 -43 -90 -101 -34 -67 -35 -71
-38 -210 -3 -101 1 -162 12 -215 17 -80 62 -186 102 -238 13 -17 24 -38 24
-46 0 -23 88 -96 131 -109 l39 -11 0 -58 c0 -57 -1 -59 -34 -73 -22 -9 -50
-38 -85 -87 -30 -43 -69 -84 -94 -100 -23 -14 -145 -92 -271 -173 l-229 -146
-1038 0 c-1026 0 -1039 0 -1059 20 -20 20 -20 33 -20 945 0 912 0 925 20 945
20 20 33 20 1393 20 1226 0 1375 -2 1395 -16z m1442 -451 c1 -39 -70 -1054
-75 -1078 -2 -11 -18 -25 -34 -32 l-31 -11 -2 -334 -3 -333 -110 167 c-60 91
-126 193 -146 225 l-36 59 -254 123 -254 123 -30 62 c-39 79 -56 85 -242 85
l-143 1 0 50 0 49 78 -6 c100 -7 212 4 212 22 0 7 13 15 28 18 15 3 51 29 80
58 62 61 77 105 64 179 l-9 50 29 0 c40 0 44 19 23 105 -24 96 -16 117 57 140
78 26 106 45 139 96 32 50 37 86 14 95 -10 4 -13 13 -9 26 8 27 -14 51 -43 43
-19 -4 -23 -2 -23 20 l0 25 360 0 360 0 0 -27z m115 -1333 c0 -18 -43 -26 -57
-12 -16 16 2 33 30 30 16 -2 27 -9 27 -18z m240 0 c0 -12 -19 -16 -99 -18 -97
-3 -126 4 -111 27 4 8 41 11 108 9 83 -2 102 -6 102 -18z m85 0 c0 -16 -7 -20
-30 -20 -18 0 -30 5 -30 13 0 20 10 27 37 27 16 0 23 -6 23 -20z m95 0 c0 -18
-43 -26 -57 -12 -16 16 2 33 30 30 16 -2 27 -9 27 -18z m250 0 c0 -12 -19 -16
-102 -18 -98 -3 -103 -2 -103 18 0 20 5 21 103 18 83 -2 102 -6 102 -18z
m-580 -70 c0 -18 -43 -26 -57 -12 -16 16 2 33 30 30 16 -2 27 -9 27 -18z m233
3 c-3 -16 -16 -18 -103 -18 -87 0 -100 2 -103 18 -3 15 7 17 103 17 96 0 106
-2 103 -17z m90 -5 c3 -14 -3 -18 -27 -18 -25 0 -31 4 -31 21 0 16 5 20 27 17
17 -2 29 -10 31 -20z m90 0 c3 -14 -3 -18 -27 -18 -29 0 -41 17 -24 34 13 13
48 1 51 -16z m257 2 c0 -12 -19 -16 -99 -18 -97 -3 -126 4 -111 27 4 8 41 11
108 9 83 -2 102 -6 102 -18z m-587 -72 c3 -14 -3 -18 -27 -18 -29 0 -41 17
-24 34 13 13 48 1 51 -16z m237 2 c0 -12 -19 -16 -102 -18 -98 -3 -103 -2
-103 18 0 20 5 21 103 18 83 -2 102 -6 102 -18z m90 0 c0 -18 -43 -26 -57 -12
-16 16 2 33 30 30 16 -2 27 -9 27 -18z m93 -2 c3 -14 -3 -18 -26 -18 -34 0
-43 7 -35 27 8 20 57 13 61 -9z m252 2 c0 -19 -7 -20 -99 -20 -95 0 -120 7
-106 30 3 6 50 10 106 10 92 0 99 -1 99 -20z m-582 -72 c3 -14 -3 -18 -27 -18
-34 0 -51 18 -30 31 21 14 53 6 57 -13z m237 2 c0 -12 -19 -16 -99 -18 -97 -3
-126 4 -111 27 4 8 41 11 108 9 83 -2 102 -6 102 -18z m83 -2 c3 -14 -3 -18
-27 -18 -29 0 -41 17 -24 34 13 13 48 1 51 -16z m97 2 c0 -10 -12 -16 -32 -18
-32 -3 -45 13 -26 32 13 12 58 2 58 -14z m1550 -55 c30 -30 31 -54 4 -89 -14
-18 -30 -26 -51 -26 -29 0 -30 1 -23 33 3 17 9 49 12 70 7 44 23 47 58 12z
m-1970 -15 c0 -18 -43 -26 -57 -12 -16 16 2 33 30 30 16 -2 27 -9 27 -18z
m234 7 c18 -23 2 -27 -100 -27 -95 0 -129 11 -98 31 23 15 185 11 198 -4z m91
-7 c0 -16 -7 -20 -30 -20 -18 0 -30 5 -30 13 0 20 10 27 37 27 16 0 23 -6 23
-20z m95 0 c0 -18 -43 -26 -57 -12 -16 16 2 33 30 30 16 -2 27 -9 27 -18z
m-507 -72 c3 -14 -3 -18 -27 -18 -29 0 -41 17 -24 34 13 13 48 1 51 -16z m226
16 c9 -3 16 -12 16 -20 0 -11 -22 -14 -105 -14 -81 0 -105 3 -105 13 0 8 3 17
7 20 8 9 166 9 187 1z m101 -14 c0 -18 -43 -26 -57 -12 -16 16 2 33 30 30 16
-2 27 -9 27 -18z m93 -2 c3 -14 -3 -18 -26 -18 -34 0 -43 7 -35 27 8 20 57 13
61 -9z m-505 -62 c8 -19 -1 -26 -35 -26 -26 0 -37 17 -21 33 12 12 51 7 56 -7z
m325 -8 c3 -14 -3 -18 -27 -18 -29 0 -41 17 -24 34 13 13 48 1 51 -16z m90 0
c3 -14 -3 -18 -27 -18 -29 0 -41 17 -24 34 13 13 48 1 51 -16z m-178 -3 c0
-12 -18 -15 -105 -15 -87 0 -105 3 -105 15 0 12 18 15 105 15 87 0 105 -3 105
-15z m-322 -67 c3 -14 -3 -18 -27 -18 -34 0 -51 18 -30 31 21 14 53 6 57 -13z
m320 0 c3 -14 -3 -18 -27 -18 -29 0 -41 17 -24 34 13 13 48 1 51 -16z m96 7
c17 -17 46 -20 46 -5 0 6 42 10 105 10 87 0 105 -3 105 -15 0 -12 -16 -15 -82
-15 l-82 0 42 -36 c54 -46 72 -81 72 -141 -1 -62 -29 -124 -71 -156 -19 -13
-101 -50 -184 -80 l-149 -55 -37 33 c-20 18 -64 48 -98 67 -33 18 -61 36 -61
39 0 4 22 24 49 44 27 21 75 68 106 105 66 80 159 170 175 170 6 0 8 5 5 10
-20 33 30 54 59 25z m-179 -10 c0 -6 -44 -11 -107 -13 -93 -2 -108 0 -108 13
0 13 15 15 108 13 63 -2 107 -7 107 -13z"/>
<path d="M2332 4644 c-29 -20 -31 -79 -3 -94 29 -15 56 -12 74 8 23 25 21 58
-3 82 -24 24 -38 25 -68 4z"/>
<path d="M2530 4640 c-51 -51 15 -132 72 -87 30 23 31 55 4 82 -30 30 -49 32
-76 5z"/>
<path d="M2742 4644 c-43 -30 -20 -104 32 -104 50 0 73 63 36 100 -24 24 -38
25 -68 4z"/>
<path d="M4465 4630 c3 -5 39 -10 80 -10 41 0 77 5 80 10 4 6 -25 10 -80 10
-55 0 -84 -4 -80 -10z"/>
<path d="M4460 4590 c0 -6 33 -10 79 -10 44 0 83 5 86 10 4 6 -25 10 -79 10
-51 0 -86 -4 -86 -10z"/>
<path d="M4460 4550 c0 -6 33 -10 80 -10 47 0 80 4 80 10 0 6 -33 10 -80 10
-47 0 -80 -4 -80 -10z"/>
<path d="M2823 4473 c357 -2 937 -2 1290 0 353 1 62 2 -648 2 -710 0 -998 -1
-642 -2z"/>
<path d="M3304 3896 c-3 -8 -4 -29 -2 -48 l3 -33 245 0 245 0 3 33 c6 61 4 62
-255 62 -191 0 -235 -3 -239 -14z"/>
</g>
</svg>
